<svg width="24" height="24" viewBox="0 0 24 24" fill="none" xmlns="http://www.w3.org/2000/svg">
<g clip-path="url(#clip0_46553_628)">
<path d="M0 4H24V20.0002H0V4Z" fill="#F0F0F0"/>
<path d="M13.5 4H10.5V10.5H0V13.5H10.5V19.9999H13.5V13.5H24V10.5H13.5V4Z" fill="#D80027"/>
<path d="M18.4594 14.7827L24.0007 17.8613V14.7827H18.4594ZM14.6094 14.7827L24.0007 20.0001V18.5247L17.2651 14.7827H14.6094ZM21.4992 20.0001L14.6094 16.1721V20.0001H21.4992Z" fill="#0052B4"/>
<path d="M14.6094 14.7827L24.0007 20.0001V18.5247L17.2651 14.7827H14.6094Z" fill="#F0F0F0"/>
<path d="M14.6094 14.7827L24.0007 20.0001V18.5247L17.2651 14.7827H14.6094Z" fill="#D80027"/>
<path d="M4.23473 14.7822L0 17.1349V14.7822H4.23473ZM9.39131 15.4457V19.9997H1.19489L9.39131 15.4457Z" fill="#0052B4"/>
<path d="M6.73561 14.7827L0 18.5247V20.0001L9.39131 14.7827H6.73561Z" fill="#D80027"/>
<path d="M5.54133 9.21737L0 6.13881V9.21737H5.54133ZM9.39131 9.21737L0 4V5.47534L6.73561 9.21737H9.39131ZM2.50153 4L9.39131 7.828V4H2.50153Z" fill="#0052B4"/>
<path d="M9.39131 9.21737L0 4V5.47534L6.73561 9.21737H9.39131Z" fill="#F0F0F0"/>
<path d="M9.39131 9.21737L0 4V5.47534L6.73561 9.21737H9.39131Z" fill="#D80027"/>
<path d="M19.766 9.21742L24.0007 6.86477V9.21742H19.766ZM14.6094 8.55395V4H22.8058L14.6094 8.55395Z" fill="#0052B4"/>
<path d="M17.2651 9.21737L24.0007 5.47534V4L14.6094 9.21737H17.2651Z" fill="#D80027"/>
</g>
<defs>
<clipPath id="clip0_46553_628">
<rect width="24" height="24" fill="white"/>
</clipPath>
</defs>
</svg>
