<svg width="72" height="73" viewBox="0 0 72 73" fill="none" xmlns="http://www.w3.org/2000/svg">
<path d="M59.3346 53.5888C60.3513 53.1894 61.3033 52.5509 62.1288 51.6974C63.9429 49.8214 64.93 47.1509 64.8386 44.3694C64.6769 39.4391 61.6029 36.3749 56.8188 36.3734C52.0347 36.3749 48.9607 39.4391 48.799 44.3694C48.7075 47.1509 49.6947 49.8214 51.5088 51.6974C52.3357 52.5509 53.2877 53.1908 54.3072 53.5902C51.5763 53.9783 49.2729 55.0189 47.5221 56.6614C47.1823 56.2273 46.8115 55.8184 46.4125 55.438C44.3693 53.4974 41.6243 52.2978 38.3829 51.9097C39.6597 51.4864 40.855 50.7256 41.8774 49.6695C43.8911 47.5869 44.988 44.6211 44.8868 41.5316C44.7068 36.0669 41.3022 32.6708 36.0007 32.6694C30.6991 32.6708 27.2946 36.0669 27.1146 41.5316C27.0133 44.6211 28.1088 47.5869 30.124 49.6695C31.1449 50.7256 32.3416 51.4864 33.6185 51.9097C30.3785 52.2978 27.6321 53.4988 25.5888 55.438C25.1866 55.8191 24.8182 56.2297 24.4793 56.6614C22.7285 55.0175 20.425 53.9769 17.6941 53.5902C18.7122 53.1908 19.6657 52.5509 20.4925 51.6974C22.3066 49.8214 23.2938 47.1509 23.2024 44.3694C23.0407 39.4391 19.9666 36.3749 15.1825 36.3734C10.3985 36.3749 7.32442 39.4391 7.1627 44.3694C7.07129 47.1509 8.05848 49.8214 9.87254 51.6974C10.698 52.5509 11.6486 53.1894 12.6668 53.5888C5.69317 54.5717 2.53754 59.6553 2.53754 64.6995V67.91C2.53754 68.3755 2.91583 68.7538 3.38129 68.7538H68.62C69.0855 68.7538 69.4638 68.3755 69.4638 67.91V64.6995C69.4638 59.6553 66.3082 54.5717 59.3346 53.5888ZM50.4865 44.4256C50.62 40.3827 52.9277 38.0638 56.8202 38.0624C60.7127 38.0638 63.0204 40.3827 63.1539 44.4256C63.2299 46.753 62.4157 48.9763 60.9166 50.5245C59.7579 51.7227 58.3024 52.3836 56.8202 52.3836C55.3366 52.3836 53.8825 51.7227 52.7224 50.5245C51.2247 48.9749 50.4091 46.753 50.4865 44.4256ZM28.8007 41.5878C28.9525 36.995 31.5766 34.3597 36.0007 34.3583C40.4247 34.3597 43.0488 36.995 43.2007 41.5878C43.2879 44.2231 42.364 46.7417 40.6652 48.4967C39.3461 49.8594 37.6896 50.6117 36.0007 50.6117C34.3104 50.6103 32.6538 49.8594 31.3361 48.4967C29.6388 46.7417 28.7149 44.2231 28.8007 41.5878ZM8.84879 44.4256C8.98239 40.3827 11.29 38.0638 15.1825 38.0624C19.075 38.0638 21.3827 40.3827 21.5163 44.4256C21.5922 46.753 20.778 48.9763 19.2789 50.5245C18.1202 51.7227 16.6647 52.3836 15.1825 52.3836C13.699 52.3836 12.2449 51.7227 11.0847 50.5245C9.58708 48.9749 8.77145 46.753 8.84879 44.4256ZM4.22504 64.6995C4.22504 58.8706 8.52536 55.1061 15.1811 55.1061C18.6996 55.1061 21.5683 56.1355 23.523 58.0874C22.4866 59.9141 21.9311 62.0417 21.9311 64.3128V67.0663H4.22504V64.6995ZM48.3813 67.0649H23.62V64.3114C23.62 57.7175 28.48 53.458 36.0007 53.458C43.5213 53.458 48.3813 57.7189 48.3813 64.3114V67.0649ZM67.7763 67.0663H50.0688V64.3128C50.0688 62.0417 49.5133 59.9155 48.4769 58.0874C50.4316 56.1341 53.3004 55.1061 56.8188 55.1061C63.4746 55.1061 67.7749 58.872 67.7749 64.6995V67.0663H67.7763ZM30.2927 17.4889L28.9765 23.997C28.9104 24.3205 29.0397 24.6524 29.3069 24.8464C29.5741 25.0405 29.9299 25.0616 30.2182 24.8984L36.0007 21.6359L41.7832 24.8999C41.9125 24.973 42.056 25.0081 42.198 25.0081C42.3724 25.0081 42.5468 24.9533 42.6944 24.8464C42.8253 24.7515 42.926 24.621 42.9846 24.4703C43.0432 24.3197 43.0572 24.1554 43.0249 23.997L41.7086 17.4889L46.5996 12.9974C46.7185 12.888 46.8036 12.7468 46.8447 12.5905C46.8859 12.4342 46.8813 12.2694 46.8316 12.1156C46.7814 11.9619 46.6883 11.8258 46.5632 11.7234C46.4381 11.621 46.2862 11.5565 46.1257 11.5377L39.5289 10.7783L36.7685 4.73845C36.7012 4.59128 36.5931 4.46654 36.457 4.37908C36.3209 4.29162 36.1625 4.24512 36.0007 4.24512C35.8389 4.24512 35.6805 4.29162 35.5443 4.37908C35.4082 4.46654 35.3001 4.59128 35.2329 4.73845L32.4724 10.7797L25.8757 11.5377C25.715 11.5563 25.5631 11.6206 25.4379 11.7231C25.3128 11.8255 25.2197 11.9618 25.1697 12.1156C25.1196 12.2694 25.1148 12.4343 25.156 12.5906C25.1971 12.747 25.2825 12.8882 25.4018 12.9974L30.2927 17.4889ZM33.139 12.4011C33.4329 12.3674 33.6874 12.1817 33.8097 11.9131L36.0007 7.12063L38.1916 11.9145C38.2519 12.0468 38.3453 12.1612 38.4628 12.2467C38.5804 12.3322 38.718 12.3859 38.8624 12.4025L44.0979 13.0044L40.2166 16.5692C40.1095 16.6674 40.0296 16.7917 39.9847 16.93C39.9399 17.0682 39.9316 17.2157 39.9607 17.3581L41.0055 22.5233L36.4155 19.933C36.2861 19.8599 36.1441 19.8247 36.0007 19.8247C35.8572 19.8247 35.7152 19.8613 35.5858 19.933L30.9958 22.5233L32.0407 17.3581C32.0997 17.0684 32.0027 16.7689 31.7847 16.5692L27.9035 13.0044L33.139 12.4011ZM5.95754 30.74C5.89145 31.0634 6.02083 31.3953 6.28801 31.5894C6.5552 31.7834 6.91098 31.8031 7.19926 31.6414L12.9818 28.3775L18.7643 31.6414C18.8936 31.7145 19.0371 31.7497 19.1791 31.7497C19.3535 31.7497 19.5279 31.6949 19.6755 31.588C19.8063 31.4931 19.9071 31.3625 19.9657 31.2119C20.0243 31.0613 20.0383 30.897 20.006 30.7386L18.6897 24.2305L23.5807 19.7389C23.6996 19.6295 23.7847 19.4883 23.8258 19.332C23.867 19.1758 23.8624 19.011 23.8127 18.8572C23.7625 18.7035 23.6694 18.5674 23.5443 18.465C23.4192 18.3626 23.2673 18.2981 23.1068 18.2792L16.51 17.5199L13.7496 11.4814C13.6823 11.3342 13.5742 11.2095 13.4381 11.122C13.302 11.0346 13.1436 10.9881 12.9818 10.9881C12.82 10.9881 12.6616 11.0346 12.5254 11.122C12.3893 11.2095 12.2812 11.3342 12.214 11.4814L9.45348 17.5213L2.85676 18.2806C2.6961 18.2992 2.54415 18.3636 2.41901 18.4661C2.29386 18.5685 2.20077 18.7048 2.15083 18.8586C2.1007 19.0123 2.09593 19.1772 2.13708 19.3336C2.17823 19.49 2.26356 19.6312 2.38286 19.7403L7.27379 24.2319L5.95754 30.74ZM4.88458 19.7459L10.12 19.1441C10.414 19.1103 10.6685 18.9247 10.7908 18.6561L12.9818 13.8622L15.1727 18.6561C15.233 18.7884 15.3264 18.9028 15.4439 18.9883C15.5615 19.0738 15.6991 19.1274 15.8435 19.1441L21.079 19.7459L17.1977 23.3108C17.0906 23.409 17.0107 23.5333 16.9658 23.6715C16.921 23.8098 16.9127 23.9573 16.9418 24.0997L17.9866 29.2649L13.3966 26.6745C13.2699 26.6033 13.1271 26.5659 12.9818 26.5659C12.8364 26.5659 12.6936 26.6033 12.5669 26.6745L7.97692 29.2649L9.02176 24.0997C9.08083 23.81 8.98379 23.5105 8.76583 23.3108L4.88458 19.7459ZM69.8505 18.8572C69.8003 18.7035 69.7072 18.5674 69.5821 18.465C69.457 18.3626 69.3052 18.2981 69.1446 18.2792L62.5479 17.5199L59.7874 11.48C59.7201 11.3328 59.612 11.2081 59.4759 11.1206C59.3398 11.0332 59.1814 10.9867 59.0196 10.9867C58.8578 10.9867 58.6994 11.0332 58.5633 11.1206C58.4271 11.2081 58.319 11.3328 58.2518 11.48L55.4913 17.5199L48.8946 18.2792C48.7339 18.2978 48.582 18.3622 48.4568 18.4647C48.3317 18.5671 48.2386 18.7034 48.1886 18.8572C48.1385 19.0109 48.1337 19.1758 48.1749 19.3322C48.216 19.4886 48.3014 19.6298 48.4207 19.7389L53.3116 24.2305L51.9954 30.7386C51.9293 31.062 52.0586 31.3939 52.3258 31.588C52.593 31.782 52.9488 31.8017 53.2371 31.64L59.0196 28.3761L64.8021 31.64C64.9314 31.7131 65.0749 31.7483 65.2169 31.7483C65.3913 31.7483 65.5657 31.6934 65.7133 31.5866C65.8442 31.4917 65.9449 31.3611 66.0035 31.2105C66.0621 31.0599 66.0761 30.8956 66.0438 30.7372L64.7275 24.2291L69.6185 19.7375C69.8618 19.5167 69.9518 19.1722 69.8505 18.8572ZM63.2355 23.3108C63.1284 23.409 63.0485 23.5333 63.0036 23.6715C62.9588 23.8098 62.9505 23.9573 62.9796 24.0997L64.0244 29.2649L59.4344 26.6745C59.3078 26.6033 59.1649 26.5659 59.0196 26.5659C58.8743 26.5659 58.7314 26.6033 58.6047 26.6745L54.0147 29.2649L55.0596 24.0997C55.1186 23.81 55.0216 23.5105 54.8036 23.3108L50.9224 19.7459L56.1579 19.1441C56.4518 19.1103 56.7063 18.9247 56.8286 18.6561L59.0196 13.8622L61.2105 18.6561C61.2708 18.7884 61.3642 18.9028 61.4818 18.9883C61.5993 19.0738 61.7369 19.1274 61.8813 19.1441L67.1168 19.7459L63.2355 23.3108Z" fill="#CAB36A"/>
</svg>
